<?xml version="1.0" encoding="UTF-8"?>
<svg width="16px" height="15px" viewBox="0 0 16 15" version="1.1" xmlns="http://www.w3.org/2000/svg" xmlns:xlink="http://www.w3.org/1999/xlink">
    <!-- Generator: Sketch 52.1 (67048) - http://www.bohemiancoding.com/sketch -->
    <title>shopping-cart</title>
    <desc>Created with Sketch.</desc>
    <g id="Symbols" stroke="none" stroke-width="1" fill="none" fill-rule="evenodd">
        <g id="768-header-russam" transform="translate(-551.000000, -69.000000)" fill="#FFFFFF" fill-rule="nonzero">
            <g id="shopping-cart" transform="translate(551.000000, 69.000000)">
                <path d="M12,11 C10.8971805,11 10,11.8972118 10,13 C10,14.1027882 10.8972118,15 12,15 C13.1027882,15 14,14.1027882 14,13 C14,11.8972118 13.1027882,11 12,11 Z M12,13.8 C11.5588033,13.8 11.2,13.4411967 11.2,13 C11.2,12.5588033 11.5588033,12.2 12,12.2 C12.4411967,12.2 12.8,12.5588033 12.8,13 C12.8,13.4411967 12.4411967,13.8 12,13.8 Z" id="Shape"></path>
                <path d="M15.872816,3.00432608 C15.7595028,2.85626324 15.5857205,2.76990123 15.4015944,2.76990123 L3.69439764,2.76990123 L3.15573809,0.469041117 C3.0913002,0.194099181 2.85048622,0 2.57357827,0 L0.598503668,0 C0.267939142,-3.19032184e-05 0,0.273506291 0,0.610978536 C0,0.94845078 0.267939142,1.22198897 0.598503668,1.22198897 L2.10116913,1.22198897 L4.04630605,9.53095888 C4.11074394,9.80612414 4.35155792,10 4.62846587,10 L13.9452417,10 C14.2203684,10 14.4601511,9.80854879 14.5261828,9.53603149 L15.9825667,3.52773028 C16.0266295,3.34527577 15.9861292,3.15238891 15.872816,3.00432608 Z M13.4769888,8.77801103 L5.10087501,8.77801103 L3.9804619,3.99192211 L14.636871,3.99192211 L13.4769888,8.77801103 Z" id="Shape"></path>
                <path d="M6,11 C4.89718045,11 4,11.8972118 4,13 C4,14.1027882 4.89721178,15 6,15 C7.10278822,15 8,14.1027882 8,13 C8,11.8972118 7.10278822,11 6,11 Z M6,13.8 C5.55880326,13.8 5.2,13.4411967 5.2,13 C5.2,12.5588033 5.55880326,12.2 6,12.2 C6.44119674,12.2 6.8,12.5588033 6.8,13 C6.8,13.4411967 6.44119674,13.8 6,13.8 Z" id="Shape"></path>
            </g>
        </g>
    </g>
</svg>